<svg xmlns="http://www.w3.org/2000/svg" viewBox="0 0 653.3 469.17"><defs><style>.cls-1{fill:#6fc1ae;}.cls-2{font-size:184.65px;font-family:AktivGroteskW04-Thin, AktivGroteskW04 Thin;font-weight:200;}.cls-3{letter-spacing:-0.01em;}</style></defs><g id="Layer_2" data-name="Layer 2"><g id="Layer_1-2" data-name="Layer 1"><path class="cls-1" d="M436.65,195a131,131,0,0,0,16.24-61.84C453.73,61,395.33,1,323.09,0A131.68,131.68,0,0,0,205.87,195h59.6S212.58,169,231,90.26a3.92,3.92,0,0,1,3.18-3c6.94-1.15,27.29-3,55.38,7.82,0,0,9.12-46.67,51.42-21.15,0,0,32.09-22.61,49.6,15,0,0,6.56,19.33-10.22,32.46,0,0,17.7-1.58,29.56.55a3.9,3.9,0,0,1,3.11,3.12c1.87,9.57,6,43.89-23.18,70Z"/><path class="cls-1" d="M214.67,208.9a131.64,131.64,0,0,0,213.18,0Z"/><path class="cls-1" d="M243.4,106.17c-2.09,17.1-5.69,87,74.52,88.83a4,4,0,0,0,4-3.26c2.69-15.52,9-80.94-74.22-89A3.94,3.94,0,0,0,243.4,106.17Z"/><path class="cls-1" d="M336.58,192.49c-1.13-.1-5-60.15,58.79-57.12a3.81,3.81,0,0,1,3.63,3.86C398.78,152.52,393.83,197.47,336.58,192.49Z"/><path class="cls-1" d="M297.82,99v-.67c.3-7.53,3.38-22.79,23.44-22.51,0,0,8.55.73,14.85,6.2l-6.61,8.44a2.45,2.45,0,0,0,.61,3.58h0a2.45,2.45,0,0,0,3.13-.42l9.58-10.51s17.46-15.68,31.68-2.92c0,0,27.71,25.89-20.42,48.14a56.45,56.45,0,0,0-16,13.8,2,2,0,0,1-3.3-.33c-2.58-5.27-8.63-16.64-17-25.93C317.74,115.85,303.89,101.78,297.82,99Z"/><text class="cls-2" transform="translate(0 418)">Koke<tspan class="cls-3" x="380.57" y="0">z</tspan><tspan x="458.31" y="0">en</tspan></text><path class="cls-1" d="M29.83,458.72c-.1-2.29-.21-5.06-.2-7.48h-.07c-.55,2.18-1.24,4.58-2,6.83l-2.45,7.7H22.82l-2.21-7.59c-.65-2.28-1.25-4.7-1.68-6.94h-.06c-.07,2.33-.17,5.17-.3,7.59L18.2,466H15.37l1.11-17.78h4l2.17,7.14c.6,2.1,1.13,4.21,1.53,6.19h.07c.45-1.94,1-4.12,1.67-6.21l2.3-7.12h3.95l1,17.78h-3Z"/><path class="cls-1" d="M55.33,456.91c0,5.95-3.38,9.36-8,9.36s-7.68-3.84-7.68-9c0-5.46,3.23-9.31,7.92-9.31C52.47,447.91,55.33,451.82,55.33,456.91Zm-12.43.25c0,3.63,1.72,6.51,4.62,6.51s4.6-2.92,4.6-6.64c0-3.36-1.56-6.53-4.59-6.53S42.9,453.5,42.9,457.16Z"/><path class="cls-1" d="M62.25,462.44a8,8,0,0,0,4,1.13c1.94,0,3-1,3-2.43s-.84-2.13-3-2.95c-2.74-1-4.5-2.62-4.5-5.17,0-2.91,2.28-5.1,5.89-5.1a8.38,8.38,0,0,1,4,.88L71,451.42a6.78,6.78,0,0,0-3.32-.85c-1.93,0-2.75,1.1-2.75,2.15,0,1.36,1,2,3.18,2.91,2.89,1.18,4.28,2.73,4.28,5.28,0,2.86-2,5.34-6.31,5.34a9.14,9.14,0,0,1-4.5-1.13Z"/><path class="cls-1" d="M79.43,462.44a8,8,0,0,0,4,1.13c1.94,0,3-1,3-2.43s-.84-2.13-3-2.95c-2.74-1-4.5-2.62-4.5-5.17,0-2.91,2.28-5.1,5.89-5.1a8.38,8.38,0,0,1,4,.88l-.73,2.62a6.78,6.78,0,0,0-3.32-.85c-1.93,0-2.75,1.1-2.75,2.15,0,1.36,1,2,3.18,2.91,2.89,1.18,4.28,2.73,4.28,5.28,0,2.86-2,5.34-6.31,5.34a9.14,9.14,0,0,1-4.5-1.13Z"/><path class="cls-1" d="M108.35,450.92H103.6V448.2h12.59v2.72h-4.8V466h-3Z"/><path class="cls-1" d="M131.8,458.09h-6.27v5.22h7V466H122.48V448.2h9.69v2.67h-6.64v4.57h6.27Z"/><path class="cls-1" d="M139.57,448.44a25.27,25.27,0,0,1,4.61-.38c2.38,0,4,.43,5.13,1.43a4.92,4.92,0,0,1-1.59,8v.08c1.2.49,1.9,1.71,2.32,3.44a41.71,41.71,0,0,0,1.31,5h-3.12a23.86,23.86,0,0,1-1.12-4.2c-.48-2.32-1.27-3.07-3-3.11h-1.53V466h-3Zm3,7.85h1.8c2.06,0,3.33-1.16,3.33-2.93,0-1.94-1.27-2.84-3.24-2.85a8.37,8.37,0,0,0-1.89.16Z"/><path class="cls-1" d="M158,448.44a25.44,25.44,0,0,1,4.61-.38c2.39,0,4,.43,5.13,1.43a4.61,4.61,0,0,1,1.44,3.57,4.68,4.68,0,0,1-3,4.44v.08c1.21.49,1.91,1.71,2.32,3.44a39.29,39.29,0,0,0,1.32,5h-3.13a25.91,25.91,0,0,1-1.12-4.2c-.48-2.32-1.26-3.07-3-3.11H161V466h-3Zm3,7.85h1.8c2.06,0,3.33-1.16,3.33-2.93,0-1.94-1.28-2.84-3.24-2.85a8.3,8.3,0,0,0-1.89.16Z"/><path class="cls-1" d="M179.9,461l-1.42,5h-3.14l5.34-17.78h3.87L190,466H186.7l-1.51-5Zm4.79-2.45-1.31-4.38c-.32-1.11-.6-2.32-.85-3.35h-.05c-.25,1-.5,2.28-.79,3.33l-1.29,4.4Z"/><path class="cls-1" d="M196.64,448.44a25.27,25.27,0,0,1,4.61-.38c2.38,0,4,.43,5.13,1.43a4.92,4.92,0,0,1-1.59,8v.08c1.2.49,1.9,1.71,2.32,3.44a41.71,41.71,0,0,0,1.31,5H205.3a23.86,23.86,0,0,1-1.12-4.2c-.48-2.32-1.27-3.07-3-3.11h-1.53V466h-3Zm3,7.85h1.8c2.06,0,3.33-1.16,3.33-2.93,0-1.94-1.27-2.84-3.24-2.85a8.37,8.37,0,0,0-1.89.16Z"/><path class="cls-1" d="M218.09,448.2V466h-3V448.2Z"/><path class="cls-1" d="M229,448.2v10.36c0,3.48,1.35,5.1,3.41,5.1s3.51-1.61,3.51-5.1V448.2h3v10.15c0,5.48-2.64,7.92-6.66,7.92-3.84,0-6.34-2.3-6.34-7.9V448.2Z"/><path class="cls-1" d="M260.77,458.72c-.1-2.29-.21-5.06-.19-7.48h-.07c-.55,2.18-1.25,4.58-2,6.83l-2.44,7.7h-2.34l-2.2-7.59c-.65-2.28-1.25-4.7-1.69-6.94h-.05c-.07,2.33-.17,5.17-.3,7.59l-.37,7.15h-2.83l1.1-17.78h4l2.17,7.14c.59,2.1,1.13,4.21,1.53,6.19h.07c.45-1.94,1-4.12,1.66-6.21l2.31-7.12h3.94l1,17.78h-3Z"/><path class="cls-1" d="M270,469.17a43.34,43.34,0,0,0,1.65-7l3.19-.27a36.14,36.14,0,0,1-2.77,7Z"/><path class="cls-1" d="M281.7,448.2h3v15.05h6.84V466H281.7Z"/><path class="cls-1" d="M301.67,461l-1.42,5h-3.14l5.34-17.78h3.87L311.73,466h-3.27l-1.5-5Zm4.79-2.45-1.31-4.38c-.32-1.11-.6-2.32-.85-3.35h-.06c-.24,1-.49,2.28-.79,3.33l-1.28,4.4Z"/><path class="cls-1" d="M318.4,466V448.2h3.48l4.3,7.63a52.57,52.57,0,0,1,2.83,6l.06,0c-.22-2.36-.27-4.65-.27-7.37v-6.2h2.81V466h-3.15l-4.35-7.82a64.17,64.17,0,0,1-3-6.14l-.08,0c.12,2.31.16,4.66.16,7.58V466Z"/><path class="cls-1" d="M339.46,448.44a28.67,28.67,0,0,1,4.85-.38c3.12,0,5.25.69,6.78,2.05a8.22,8.22,0,0,1,2.61,6.55,9.55,9.55,0,0,1-2.59,7.07c-1.67,1.6-4.31,2.42-7.54,2.42a32.09,32.09,0,0,1-4.11-.23Zm3,15.06a10.48,10.48,0,0,0,1.69.09c3.95,0,6.3-2.32,6.3-6.82,0-3.93-2.1-6.19-5.92-6.19a9.56,9.56,0,0,0-2.07.19Z"/><path class="cls-1" d="M360.63,462.44a8,8,0,0,0,4,1.13c1.94,0,3-1,3-2.43s-.84-2.13-2.95-2.95c-2.75-1-4.5-2.62-4.5-5.17,0-2.91,2.27-5.1,5.88-5.1a8.32,8.32,0,0,1,4,.88l-.72,2.62a6.86,6.86,0,0,0-3.33-.85c-1.93,0-2.75,1.1-2.75,2.15,0,1.36,1,2,3.19,2.91,2.89,1.18,4.28,2.73,4.28,5.28,0,2.86-2,5.34-6.31,5.34a9.14,9.14,0,0,1-4.5-1.13Z"/><path class="cls-1" d="M389.82,465.45a10.25,10.25,0,0,1-4.32.8c-5.28,0-8.49-3.54-8.49-8.95,0-5.85,3.82-9.38,8.9-9.38a8.85,8.85,0,0,1,4,.78l-.66,2.59a7.54,7.54,0,0,0-3.24-.69c-3.39,0-5.84,2.26-5.84,6.54,0,3.91,2.14,6.4,5.8,6.4a8.19,8.19,0,0,0,3.31-.65Z"/><path class="cls-1" d="M400.26,461l-1.42,5H395.7L401,448.2h3.87L410.32,466h-3.27l-1.5-5Zm4.79-2.45-1.32-4.38c-.31-1.11-.59-2.32-.84-3.35h-.06c-.24,1-.49,2.28-.79,3.33l-1.28,4.4Z"/><path class="cls-1" d="M417,448.42a26.26,26.26,0,0,1,4.66-.36,7.15,7.15,0,0,1,4.9,1.45,5.18,5.18,0,0,1,1.63,3.94,5.64,5.64,0,0,1-1.42,4,7.09,7.09,0,0,1-5.26,1.91,7.24,7.24,0,0,1-1.49-.12V466h-3Zm3,8.29a5.6,5.6,0,0,0,1.49.15c2.27,0,3.66-1.21,3.66-3.29s-1.29-3-3.39-3a7.92,7.92,0,0,0-1.76.16Z"/><path class="cls-1" d="M444.47,458.09H438.2v5.22h7V466H435.16V448.2h9.69v2.67H438.2v4.57h6.27Z"/><path class="cls-1" d="M450.56,469.17a43.34,43.34,0,0,0,1.65-7l3.19-.27a36.14,36.14,0,0,1-2.77,7Z"/><path class="cls-1" d="M465,466l-4.06-17.78h3.24l1.58,8.07c.42,2.17.81,4.43,1.09,6.19h.05c.27-1.86.72-4,1.21-6.23l1.79-8h3.2l1.64,8.18c.41,2.1.76,4.09,1,6h0c.3-2,.7-4,1.13-6.16l1.73-8h3.1L477.25,466H474l-1.72-8.38c-.42-2-.72-3.71-.94-5.62h-.05a56.87,56.87,0,0,1-1.1,5.63L468.27,466Z"/><path class="cls-1" d="M502.76,456.91c0,5.95-3.38,9.36-8,9.36s-7.68-3.84-7.68-9c0-5.46,3.23-9.31,7.92-9.31C499.9,447.91,502.76,451.82,502.76,456.91Zm-12.43.25c0,3.63,1.72,6.51,4.62,6.51s4.6-2.92,4.6-6.64c0-3.36-1.56-6.53-4.59-6.53S490.33,453.5,490.33,457.16Z"/><path class="cls-1" d="M509.73,448.44a25.44,25.44,0,0,1,4.61-.38c2.39,0,4,.43,5.14,1.43a4.92,4.92,0,0,1-1.6,8v.08c1.21.49,1.91,1.71,2.32,3.44a41.15,41.15,0,0,0,1.32,5H518.4a23.86,23.86,0,0,1-1.12-4.2c-.48-2.32-1.27-3.07-3-3.11h-1.53V466h-3Zm3,7.85h1.8c2.06,0,3.33-1.16,3.33-2.93,0-1.94-1.27-2.84-3.24-2.85a8.37,8.37,0,0,0-1.89.16Z"/><path class="cls-1" d="M528.15,448.2h3v8.18h.06c.4-.68.83-1.32,1.22-1.92l4.36-6.26h3.74l-5.73,7.56L540.93,466h-3.56l-4.71-8.14-1.49,1.9V466h-3Z"/><path class="cls-1" d="M546.83,462.44a8,8,0,0,0,4,1.13c1.94,0,3-1,3-2.43s-.84-2.13-3-2.95c-2.74-1-4.5-2.62-4.5-5.17,0-2.91,2.28-5.1,5.89-5.1a8.38,8.38,0,0,1,4,.88l-.73,2.62a6.78,6.78,0,0,0-3.32-.85c-1.93,0-2.75,1.1-2.75,2.15,0,1.36,1,2,3.18,2.91,2.89,1.18,4.28,2.73,4.28,5.28,0,2.86-2,5.34-6.31,5.34a9.14,9.14,0,0,1-4.5-1.13Z"/><path class="cls-1" d="M567.11,448.2v7.11h7V448.2h3V466h-3v-7.85h-7V466h-3.05V448.2Z"/><path class="cls-1" d="M599.8,456.91c0,5.95-3.38,9.36-8,9.36s-7.67-3.84-7.67-9c0-5.46,3.23-9.31,7.92-9.31C596.93,447.91,599.8,451.82,599.8,456.91Zm-12.43.25c0,3.63,1.71,6.51,4.62,6.51s4.6-2.92,4.6-6.64c0-3.36-1.56-6.53-4.6-6.53S587.37,453.5,587.37,457.16Z"/><path class="cls-1" d="M606.77,448.42a26.13,26.13,0,0,1,4.65-.36,7.15,7.15,0,0,1,4.9,1.45,5.18,5.18,0,0,1,1.63,3.94,5.64,5.64,0,0,1-1.42,4,8.38,8.38,0,0,1-6.74,1.79V466h-3Zm3,8.29a5.47,5.47,0,0,0,1.48.15c2.28,0,3.66-1.21,3.66-3.29s-1.28-3-3.38-3a7.85,7.85,0,0,0-1.76.16Z"/><path class="cls-1" d="M624.88,462.44a8,8,0,0,0,4,1.13c1.94,0,3-1,3-2.43s-.85-2.13-2.95-2.95c-2.75-1-4.51-2.62-4.51-5.17,0-2.91,2.28-5.1,5.89-5.1a8.35,8.35,0,0,1,4,.88l-.73,2.62a6.78,6.78,0,0,0-3.32-.85c-1.93,0-2.75,1.1-2.75,2.15,0,1.36,1,2,3.18,2.91,2.89,1.18,4.28,2.73,4.28,5.28,0,2.86-2,5.34-6.31,5.34a9.1,9.1,0,0,1-4.49-1.13Z"/></g></g></svg>