<svg xmlns="http://www.w3.org/2000/svg" viewBox="0 0 288.58 324.13"><defs><style>.cls-1{fill:#6fc1ae;}.cls-2{fill:#1d1d1b;}</style></defs><g id="Layer_2" data-name="Layer 2"><g id="Layer_1-2" data-name="Layer 1"><path class="cls-1" d="M263.92,195a131,131,0,0,0,16.24-61.84C281,61,222.6,1,150.36,0A131.68,131.68,0,0,0,33.14,195h59.6S39.86,169,58.24,90.26a3.93,3.93,0,0,1,3.18-3c6.94-1.15,27.29-3,55.38,7.82,0,0,9.12-46.67,51.42-21.15,0,0,32.09-22.61,49.6,15,0,0,6.56,19.33-10.22,32.46,0,0,17.7-1.58,29.56.55a3.9,3.9,0,0,1,3.11,3.12c1.87,9.57,6,43.89-23.18,70Z" transform="translate(-7.2)"/><path class="cls-1" d="M41.94,208.9a131.64,131.64,0,0,0,213.18,0Z" transform="translate(-7.2)"/><path class="cls-1" d="M70.67,106.17c-2.09,17.1-5.68,87,74.52,88.83a4,4,0,0,0,4-3.26c2.69-15.52,9-80.94-74.22-89A3.94,3.94,0,0,0,70.67,106.17Z" transform="translate(-7.2)"/><path class="cls-1" d="M163.85,192.49c-1.13-.1-5-60.15,58.79-57.12a3.81,3.81,0,0,1,3.63,3.86C226.05,152.52,221.1,197.47,163.85,192.49Z" transform="translate(-7.2)"/><path class="cls-1" d="M125.09,99v-.67c.3-7.53,3.38-22.79,23.44-22.51,0,0,8.55.73,14.85,6.2l-6.61,8.44a2.45,2.45,0,0,0,.61,3.58h0a2.45,2.45,0,0,0,3.13-.42l9.58-10.51s17.46-15.68,31.68-2.92c0,0,27.71,25.89-20.42,48.14a56.45,56.45,0,0,0-16,13.8,2,2,0,0,1-3.3-.33c-2.58-5.27-8.63-16.64-17-25.93C145,115.85,131.17,101.78,125.09,99Z" transform="translate(-7.2)"/><path class="cls-2" d="M9.36,323.7a2.12,2.12,0,0,1-1.51-.62,2,2,0,0,1-.65-1.55V269.62a2.06,2.06,0,0,1,.65-1.55,2.22,2.22,0,0,1,3.06,0,2.1,2.1,0,0,1,.61,1.55v26.43l27.94-27.94a2,2,0,0,1,.75-.5,2.57,2.57,0,0,1,.9-.15,2,2,0,0,1,1.51.61,2.39,2.39,0,0,1,.65,1.48,2.16,2.16,0,0,1-.65,1.66L22,291.87l20.88,28.37a2.08,2.08,0,0,1,.43,1.62,2.19,2.19,0,0,1-.72,1.33,2,2,0,0,1-1.37.51,2.15,2.15,0,0,1-1.87-.94L18.79,295l-7.27,7.27v19.22a2.07,2.07,0,0,1-.61,1.55A2.11,2.11,0,0,1,9.36,323.7Z" transform="translate(-7.2)"/><path class="cls-2" d="M66.74,324.13a20.38,20.38,0,0,1-10.33-2.63,19.14,19.14,0,0,1-7.2-7.2,21.46,21.46,0,0,1,0-20.59,19.14,19.14,0,0,1,7.2-7.2,21.54,21.54,0,0,1,20.63,0,19.25,19.25,0,0,1,7.16,7.2,21.46,21.46,0,0,1,0,20.59A19.25,19.25,0,0,1,77,321.5,20.19,20.19,0,0,1,66.74,324.13Zm0-4a15.38,15.38,0,0,0,13.72-7.89,17.46,17.46,0,0,0,0-16.42,15.34,15.34,0,0,0-13.72-7.88A15.56,15.56,0,0,0,53,295.79,16.32,16.32,0,0,0,50.9,304,16.13,16.13,0,0,0,53,312.21a15.6,15.6,0,0,0,13.75,7.89Z" transform="translate(-7.2)"/><path class="cls-2" d="M99.79,323.7a2.11,2.11,0,0,1-1.55-.62,2.07,2.07,0,0,1-.61-1.55V269.62a2,2,0,0,1,.61-1.58,2.2,2.2,0,0,1,1.55-.58,2.15,2.15,0,0,1,1.58.58,2.11,2.11,0,0,1,.58,1.58v51.91a2.13,2.13,0,0,1-.58,1.55A2.06,2.06,0,0,1,99.79,323.7Zm.72-12.32-2.59-2.88,26.35-24a2.24,2.24,0,0,1,1.4-.58,1.85,1.85,0,0,1,1.34.72,2.17,2.17,0,0,1,.64,1.44,1.67,1.67,0,0,1-.72,1.3Zm26.57,11.95a1.74,1.74,0,0,1-1.48.54,2,2,0,0,1-1.33-.82l-17.06-20.88,3.09-2.52,17.07,20.88a2.17,2.17,0,0,1,.54,1.44A1.94,1.94,0,0,1,127.08,323.33Z" transform="translate(-7.2)"/><path class="cls-2" d="M152.78,324.06a19.89,19.89,0,0,1-10.11-2.56,18.22,18.22,0,0,1-6.95-7.09A21,21,0,0,1,133.2,304a22,22,0,0,1,2.37-10.4,18.19,18.19,0,0,1,6.56-7.1,19,19,0,0,1,19-.1,17.12,17.12,0,0,1,6.41,6.84,21.1,21.1,0,0,1,2.31,10,1.92,1.92,0,0,1-.58,1.47,2.09,2.09,0,0,1-1.51.54H136.08v-3.74h32.83L165.74,304a17.61,17.61,0,0,0-1.58-8.28,13.53,13.53,0,0,0-4.93-5.66,13.74,13.74,0,0,0-7.53-2,13.35,13.35,0,0,0-7.31,2,14.36,14.36,0,0,0-5,5.66,18.18,18.18,0,0,0-1.83,8.35,17.22,17.22,0,0,0,1.94,8.28,14.46,14.46,0,0,0,5.4,5.65,15.23,15.23,0,0,0,7.92,2,17.3,17.3,0,0,0,5.65-1,12,12,0,0,0,4.5-2.56,2.12,2.12,0,0,1,1.41-.61,2.22,2.22,0,0,1,2.23,1.91,1.8,1.8,0,0,1-.68,1.44,18.26,18.26,0,0,1-6,3.46A20.49,20.49,0,0,1,152.78,324.06Z" transform="translate(-7.2)"/><path class="cls-2" d="M173.14,323.69c-1.3,0-1.83-.65-1.61-1.94a2.1,2.1,0,0,1,2.29-1.94H202c1.3,0,1.83.64,1.6,1.94a2.1,2.1,0,0,1-2.28,1.94Zm3.13-2.23-4.06-1.08,34.52-35.28,2.6,2.38Zm3.13-33.26c-1.3,0-1.83-.65-1.61-1.95a2.11,2.11,0,0,1,2.29-1.94h28.15c1.3,0,1.83.65,1.6,1.94a2.1,2.1,0,0,1-2.28,1.95Z" transform="translate(-7.2)"/><path class="cls-2" d="M228.87,324.05a17.52,17.52,0,0,1-9.66-2.55,14.18,14.18,0,0,1-5.7-7.09,19.33,19.33,0,0,1-.69-10.37A25.49,25.49,0,0,1,217,293.63a23.46,23.46,0,0,1,7.8-7.09,20.18,20.18,0,0,1,10-2.59,15.72,15.72,0,0,1,9,2.48,13.49,13.49,0,0,1,5.2,6.84,19.73,19.73,0,0,1,.53,10.05,2.36,2.36,0,0,1-.83,1.47,2.5,2.5,0,0,1-1.61.54H215.47l.66-3.74H249L245.37,304a16.64,16.64,0,0,0-.12-8.28,10.52,10.52,0,0,0-3.94-5.66,12,12,0,0,0-7.16-2,15.23,15.23,0,0,0-7.67,2,18.46,18.46,0,0,0-6,5.66,21,21,0,0,0-3.31,8.35,15.94,15.94,0,0,0,.48,8.28A11.14,11.14,0,0,0,222,318a13.33,13.33,0,0,0,7.55,2,18.88,18.88,0,0,0,5.83-1,15,15,0,0,0,5-2.56,2.49,2.49,0,0,1,1.51-.61,1.79,1.79,0,0,1,1.89,1.91,2.18,2.18,0,0,1-.93,1.44,23,23,0,0,1-6.62,3.46A22.59,22.59,0,0,1,228.87,324.05Z" transform="translate(-7.2)"/><path class="cls-2" d="M257.52,323.69a1.74,1.74,0,0,1-1.44-.61,1.81,1.81,0,0,1-.34-1.55l6.18-35.06a2.53,2.53,0,0,1,2.54-2.16,1.8,1.8,0,0,1,1.49.58,1.88,1.88,0,0,1,.29,1.58l-6.18,35.06a2.6,2.6,0,0,1-.85,1.55A2.44,2.44,0,0,1,257.52,323.69Zm31.9,0a1.74,1.74,0,0,1-1.44-.61,1.81,1.81,0,0,1-.34-1.55l3.41-19.37a14,14,0,0,0-.45-7.84,9.09,9.09,0,0,0-4.15-4.65,14.16,14.16,0,0,0-6.82-1.54,17.82,17.82,0,0,0-7.24,1.47,15.81,15.81,0,0,0-5.62,4.07,12,12,0,0,0-2.83,5.83h-3.6a19.46,19.46,0,0,1,4.08-8,22.1,22.1,0,0,1,7.19-5.61,19.62,19.62,0,0,1,8.78-2.05,17.88,17.88,0,0,1,8.95,2.12,12.23,12.23,0,0,1,5.43,6.19q1.65,4.06.6,10L292,321.53a2.55,2.55,0,0,1-.89,1.55A2.46,2.46,0,0,1,289.42,323.69Z" transform="translate(-7.2)"/></g></g></svg>